<svg data-v-fde0c5aa="" xmlns="http://www.w3.org/2000/svg" viewBox="0 0 300 300" class="iconAboveSlogan"><!----><defs data-v-fde0c5aa=""><!----></defs><rect data-v-fde0c5aa="" fill="transparent" x="0" y="0" width="300px" height="300px" class="logo-background-square"></rect><defs data-v-fde0c5aa=""><!----></defs><g data-v-fde0c5aa="" id="92cad264-bfa6-40a4-a17b-451600b233d1" fill="#000000" transform="matrix(2.6912327746341154,0,0,2.6912327746341154,17.739364379477756,147.32523662301827)"><path d="M9.04 5.67C9.04 5.82 8.92 5.95 8.78 5.95L4.27 5.95L6.55 8.69L7.34 8.69C7.53 8.69 7.67 8.81 7.67 8.96L7.67 10.60C7.67 10.75 7.53 10.88 7.34 10.88L3.02 10.88L3.02 15.51C3.02 15.67 2.91 15.81 2.76 15.81L1.12 15.81C0.97 15.81 0.84 15.67 0.84 15.51L0.84 8.69L3.70 8.69L0.84 5.25L0.84 4.06C0.84 3.89 0.97 3.77 1.12 3.77L8.78 3.77C8.92 3.77 9.04 3.89 9.04 4.06ZM17.15 15.54C17.15 15.69 17.00 15.81 16.80 15.81L10.86 15.81C10.71 15.81 10.58 15.69 10.58 15.54L10.58 4.12C10.58 3.93 10.71 3.78 10.86 3.78L12.50 3.78C12.66 3.78 12.77 3.93 12.77 4.12L12.77 13.62L16.80 13.62C17.00 13.62 17.15 13.75 17.15 13.90ZM26.33 12.05C26.33 13.22 25.86 14.22 24.98 14.92C24.23 15.50 23.27 15.82 22.23 15.82C21.20 15.82 20.23 15.50 19.49 14.92C18.61 14.22 18.13 13.22 18.13 12.05L18.13 4.07C18.13 3.92 18.26 3.78 18.41 3.78L20.05 3.78C20.20 3.78 20.31 3.92 20.31 4.07L20.31 12.05C20.31 13.58 22.04 13.64 22.23 13.64C22.43 13.64 24.15 13.58 24.15 12.05L24.15 4.07C24.15 3.92 24.28 3.78 24.42 3.78L26.07 3.78C26.21 3.78 26.33 3.92 26.33 4.07ZM36.29 15.37L34.06 11.42L33.75 10.89L33.68 10.77C35.71 10.32 36.76 8.82 36.76 7.35C36.76 6.38 36.32 5.46 35.55 4.82C34.76 4.14 33.66 3.79 32.38 3.79L28.29 3.79C28.14 3.79 28.01 3.92 28.01 4.06L28.01 5.17L28.15 5.42L28.15 5.43L30.02 8.71L28.01 8.71L28.01 15.54C28.01 15.69 28.14 15.82 28.29 15.82L29.93 15.82C30.07 15.82 30.20 15.69 30.20 15.54L30.20 10.89L31.25 10.89L31.54 11.42L33.94 15.65L33.96 15.69C34.01 15.76 34.09 15.82 34.19 15.82L36.06 15.82C36.22 15.82 36.33 15.69 36.33 15.53C36.33 15.48 36.33 15.44 36.30 15.40ZM32.23 8.19L30.98 5.98L32.38 5.98C33.89 5.98 34.57 6.69 34.57 7.35C34.57 7.91 34.06 8.53 32.93 8.68C32.80 8.69 32.66 8.71 32.52 8.71ZM46.58 15.37L44.35 11.42L44.04 10.89L43.97 10.77C46.00 10.32 47.05 8.82 47.05 7.35C47.05 6.38 46.61 5.46 45.84 4.82C45.05 4.14 43.95 3.79 42.67 3.79L38.58 3.79C38.43 3.79 38.30 3.92 38.30 4.06L38.30 5.17L38.44 5.42L38.44 5.43L40.31 8.71L38.30 8.71L38.30 15.54C38.30 15.69 38.43 15.82 38.58 15.82L40.22 15.82C40.36 15.82 40.49 15.69 40.49 15.54L40.49 10.89L41.54 10.89L41.83 11.42L44.23 15.65L44.25 15.69C44.30 15.76 44.38 15.82 44.48 15.82L46.35 15.82C46.51 15.82 46.62 15.69 46.62 15.53C46.62 15.48 46.62 15.44 46.59 15.40ZM42.52 8.19L41.27 5.98L42.67 5.98C44.18 5.98 44.86 6.69 44.86 7.35C44.86 7.91 44.35 8.53 43.22 8.68C43.09 8.69 42.95 8.71 42.81 8.71ZM56.39 4.06C56.39 4.10 56.39 4.13 56.38 4.17L56.35 4.21L53.31 10.05L52.85 10.96L50.41 15.62L50.40 15.67C50.40 15.68 50.40 15.68 50.39 15.68C50.34 15.75 50.26 15.81 50.16 15.81L48.31 15.81C48.16 15.81 48.05 15.68 48.05 15.51C48.05 15.48 48.05 15.46 48.06 15.43L48.10 15.34L50.93 9.91L48.06 4.20C48.05 4.14 48.03 4.10 48.03 4.06C48.03 4.03 48.03 3.99 48.05 3.96L48.09 3.88C48.15 3.81 48.22 3.77 48.31 3.77L50.13 3.77C50.23 3.77 50.33 3.82 50.37 3.91L52.18 7.52L54.03 3.95C54.04 3.93 54.04 3.92 54.04 3.92L54.07 3.88C54.11 3.81 54.19 3.77 54.28 3.77L56.13 3.77C56.28 3.77 56.39 3.91 56.39 4.06ZM65.86 15.53C65.86 15.68 65.73 15.81 65.59 15.81L63.94 15.81C63.80 15.81 63.67 15.68 63.67 15.53L63.67 10.88L59.84 10.88L59.84 15.53C59.84 15.68 59.72 15.81 59.57 15.81L57.93 15.81C57.78 15.81 57.65 15.68 57.65 15.53L57.65 4.10C57.65 3.92 57.78 3.77 57.93 3.77L59.57 3.77C59.72 3.77 59.84 3.92 59.84 4.10L59.84 8.69L63.67 8.69L63.67 4.10C63.67 3.92 63.80 3.77 63.94 3.77L65.59 3.77C65.73 3.77 65.86 3.92 65.86 4.10ZM73.07 15.82C69.75 15.82 67.05 13.12 67.05 9.80C67.05 6.48 69.75 3.78 73.07 3.78C76.38 3.78 79.09 6.48 79.09 9.80C79.09 13.12 76.38 15.82 73.07 15.82ZM73.07 5.96C70.95 5.96 69.23 7.69 69.23 9.80C69.23 11.91 70.95 13.62 73.07 13.62C75.18 13.62 76.89 11.91 76.89 9.80C76.89 7.69 75.18 5.96 73.07 5.96ZM88.62 12.28C88.62 12.38 88.61 13.22 88.07 14.07C87.58 14.88 86.58 15.83 84.52 15.83C82.89 15.83 81.62 15.15 80.93 13.93C80.61 13.34 80.49 12.77 80.44 12.40C80.44 12.38 80.43 12.35 80.43 12.32C80.43 12.18 80.54 12.05 80.68 12.04L82.40 12.04C82.52 12.05 82.60 12.12 82.63 12.24L82.63 12.25C82.63 12.26 82.64 12.28 82.64 12.29C82.67 12.46 82.74 12.70 82.88 12.91C83.17 13.40 83.72 13.65 84.52 13.65C85.37 13.65 85.92 13.41 86.21 12.94C86.41 12.61 86.44 12.26 86.44 12.26C86.44 11.87 86.34 11.41 85.61 11.12C85.08 10.89 84.52 10.88 84.52 10.88C84.42 10.88 83.52 10.86 82.60 10.50C81.19 9.93 80.42 8.81 80.42 7.34C80.42 7.20 80.44 5.89 81.47 4.87C82.19 4.13 83.23 3.75 84.52 3.75C85.34 3.75 86.53 3.93 87.44 4.86C88.33 5.75 88.55 6.89 88.61 7.45L88.61 7.48C88.61 7.64 88.49 7.77 88.34 7.77L86.65 7.77C86.53 7.76 86.44 7.66 86.41 7.55L86.41 7.50C86.37 7.31 86.30 7.03 86.16 6.75C85.96 6.40 85.58 5.94 84.52 5.94C83.83 5.94 83.33 6.09 83.01 6.41C82.63 6.79 82.60 7.34 82.60 7.34C82.60 7.73 82.70 8.18 83.43 8.47C83.96 8.68 84.52 8.69 84.52 8.69C84.62 8.69 85.51 8.71 86.44 9.09C87.85 9.67 88.62 10.81 88.62 12.28ZM97.45 5.68C97.45 5.84 97.30 5.96 97.12 5.96L94.44 5.96L94.44 15.47C94.44 15.65 94.32 15.81 94.18 15.81L92.53 15.81C92.39 15.81 92.26 15.65 92.26 15.47L92.26 5.96L89.53 5.96C89.38 5.96 89.25 5.84 89.25 5.68L89.25 4.05C89.25 3.89 89.38 3.78 89.53 3.78L97.12 3.78C97.30 3.78 97.45 3.89 97.45 4.05Z"></path></g><defs data-v-fde0c5aa=""><linearGradient data-v-fde0c5aa="" gradientTransform="rotate(25)" id="7e796e39-0bcc-47e1-84c0-2a7eeab83ce8" x1="0%" y1="0%" x2="100%" y2="0%"><stop data-v-fde0c5aa="" offset="0%" stop-color="#08C7D6" stop-opacity="1"></stop><stop data-v-fde0c5aa="" offset="100%" stop-color="#02023E" stop-opacity="1"></stop></linearGradient></defs><g data-v-fde0c5aa="" id="e5047af9-0825-4099-951f-029e335eca2a" stroke="none" fill="url(#7e796e39-0bcc-47e1-84c0-2a7eeab83ce8)" transform="matrix(0.968208822279508,0,0,0.968208822279508,124.82657200576662,90.82005241963287)"><style></style><path d="M46.058 9.807c-2.206 0-4-1.794-4-4s1.794-4 4-4 4 1.794 4 4-1.795 4-4 4zm0-6c-1.103 0-2 .898-2 2s.897 2 2 2 2-.897 2-2-.897-2-2-2z"></path><path d="M2.942 49.692a1 1 0 0 1-.707-1.707L43.12 7.1a1 1 0 1 1 1.414 1.414L3.65 49.4a.997.997 0 0 1-.707.293zM5.942 9.807c-2.205 0-4-1.794-4-4s1.795-4 4-4 4 1.794 4 4-1.794 4-4 4zm0-6c-1.103 0-2 .898-2 2s.897 2 2 2 2-.897 2-2-.897-2-2-2z"></path><path d="M49.058 49.692a.997.997 0 0 1-.707-.293L7.467 8.514A1 1 0 1 1 8.88 7.1l40.884 40.885a1 1 0 0 1-.707 1.707z"></path><g><path d="M25.942 8.519c-.817 0-1.58-.339-2.149-.955a3.268 3.268 0 0 1 0-4.416c1.139-1.232 3.158-1.232 4.297 0a3.268 3.268 0 0 1 0 4.416 2.902 2.902 0 0 1-2.148.955zm0-4.326a.926.926 0 0 0-.68.312c-.426.461-.426 1.24 0 1.702a.916.916 0 0 0 1.36 0c.426-.461.426-1.24 0-1.702a.926.926 0 0 0-.68-.312zm-1.414-.366h.01-.01z"></path><path d="M26.051 50.193a1 1 0 0 1-1-1V7.513a1 1 0 1 1 2 0v41.68a1 1 0 0 1-1 1z"></path></g></g><defs data-v-fde0c5aa=""><!----></defs><g data-v-fde0c5aa="" id="97d6b1c2-3df6-4776-bfd1-22f4b918b734" fill="#000000" transform="matrix(0.5464634065721578,0,0,0.5464634065721578,52.254091457271,198.2662025050181)"><path d="M0.45 12.43C0.45 12.59 0.48 12.67 0.67 12.67C1.09 12.67 1.48 12.64 1.83 12.64C2.24 12.64 3.08 12.67 3.35 12.67C3.54 12.67 3.54 12.60 3.54 12.43C3.54 12.26 3.54 12.21 3.37 12.21L2.42 12.21C2.34 12.21 2.30 11.17 2.30 10.23L2.30 7.91C2.30 7.80 2.35 7.78 2.56 7.78L4.13 7.78C4.21 7.78 4.26 7.48 4.26 7.45C4.26 7.35 4.19 7.35 4.12 7.35L2.56 7.35C2.30 7.35 2.24 7.35 2.24 7.15C2.25 6.55 2.27 6.31 2.27 5.71C2.27 4.83 2.31 3.46 3.05 3.46C3.53 3.46 3.58 3.93 3.67 4.58C3.68 4.72 3.77 4.75 3.89 4.75C4.10 4.75 4.61 4.40 4.61 4.05C4.61 3.44 3.96 3.07 3.40 3.07C1.74 3.07 1.18 4.40 1.18 5.87C1.18 6.61 1.20 6.54 1.20 7.22C1.20 7.35 1.19 7.35 1.11 7.35L0.69 7.35C0.56 7.35 0.53 7.39 0.53 7.57C0.53 7.76 0.56 7.80 0.73 7.80L1.19 7.80C1.22 7.80 1.22 9.02 1.22 9.35L1.22 10.19C1.22 10.35 1.23 10.88 1.23 11.37C1.23 11.70 1.23 12.21 1.18 12.21L0.66 12.21C0.49 12.21 0.45 12.29 0.45 12.43ZM11.44 7.60C11.44 7.66 11.48 7.67 11.55 7.67C11.61 7.67 12.19 7.66 12.24 7.66C12.33 7.66 12.36 8.05 12.36 8.69L12.36 10.89C12.36 11.83 12.57 12.80 13.93 12.80C14.97 12.80 16.16 12.15 16.18 12.15C16.23 12.15 16.20 12.87 16.28 12.87C16.34 12.87 17.47 12.70 17.95 12.63C18.13 12.60 18.13 12.59 18.13 12.38C18.13 12.29 18.13 12.19 18.05 12.19C18.00 12.19 17.46 12.28 17.43 12.28C17.25 12.28 17.21 12.19 17.21 11.49C17.21 10.63 17.22 7.28 17.22 7.28C17.22 7.20 17.23 7.15 17.08 7.15C17.01 7.15 16.17 7.20 15.46 7.22C15.33 7.22 15.29 7.25 15.27 7.35C15.26 7.39 15.25 7.56 15.25 7.60C15.25 7.64 15.30 7.64 15.36 7.64C15.40 7.64 15.95 7.62 16.06 7.62C16.14 7.62 16.17 9.87 16.17 10.18L16.17 11.83C16.17 11.93 15.41 12.01 14.94 12.01C14.11 12.01 13.43 11.86 13.43 11.12L13.43 7.31C13.43 7.22 13.43 7.18 13.34 7.18C13.27 7.18 12.05 7.22 11.75 7.24C11.58 7.25 11.54 7.24 11.49 7.36C11.47 7.43 11.44 7.55 11.44 7.60ZM25.65 3.58C25.65 3.65 25.66 3.65 25.72 3.65C25.77 3.65 26.36 3.60 26.45 3.60C26.52 3.60 26.57 3.57 26.60 3.82C26.71 5.07 26.75 10.37 26.75 11.06C26.75 11.44 26.75 12.21 26.68 12.21L25.97 12.21C25.82 12.21 25.80 12.29 25.80 12.43C25.80 12.59 25.82 12.67 25.98 12.67C26.40 12.67 26.98 12.64 27.33 12.64C27.73 12.64 28.22 12.67 28.49 12.67C28.66 12.67 28.66 12.60 28.66 12.43C28.66 12.28 28.66 12.21 28.49 12.21L27.89 12.21C27.83 12.21 27.82 12.05 27.82 11.70C27.82 8.89 27.75 7.62 27.73 3.32C27.73 3.16 27.73 3.07 27.59 3.07C27.51 3.07 26.42 3.15 25.86 3.19C25.75 3.21 25.72 3.19 25.69 3.32C25.66 3.42 25.65 3.57 25.65 3.58ZM36.47 12.43C36.47 12.59 36.50 12.67 36.69 12.67C37.11 12.67 37.51 12.64 37.86 12.64C38.26 12.64 39.10 12.67 39.37 12.67C39.56 12.67 39.56 12.60 39.56 12.43C39.56 12.26 39.56 12.21 39.40 12.21L38.44 12.21C38.36 12.21 38.32 11.17 38.32 10.23L38.32 7.91C38.32 7.80 38.37 7.78 38.58 7.78L40.15 7.78C40.24 7.78 40.28 7.48 40.28 7.45C40.28 7.35 40.21 7.35 40.14 7.35L38.58 7.35C38.32 7.35 38.26 7.35 38.26 7.15C38.28 6.55 38.29 6.31 38.29 5.71C38.29 4.83 38.33 3.46 39.07 3.46C39.55 3.46 39.61 3.93 39.69 4.58C39.70 4.72 39.79 4.75 39.91 4.75C40.12 4.75 40.63 4.40 40.63 4.05C40.63 3.44 39.98 3.07 39.42 3.07C37.76 3.07 37.20 4.40 37.20 5.87C37.20 6.61 37.23 6.54 37.23 7.22C37.23 7.35 37.21 7.35 37.13 7.35L36.71 7.35C36.58 7.35 36.55 7.39 36.55 7.57C36.55 7.76 36.58 7.80 36.75 7.80L37.21 7.80C37.24 7.80 37.24 9.02 37.24 9.35L37.24 10.19C37.24 10.35 37.25 10.88 37.25 11.37C37.25 11.70 37.25 12.21 37.20 12.21L36.68 12.21C36.51 12.21 36.47 12.29 36.47 12.43ZM47.59 7.64C47.59 7.70 47.66 7.70 47.71 7.70C47.77 7.70 48.34 7.67 48.38 7.67C48.48 7.67 48.54 7.66 48.55 7.85C48.59 8.88 48.61 9.87 48.61 10.85C48.61 11.14 48.61 12.21 48.57 12.21L47.87 12.21C47.67 12.21 47.66 12.29 47.66 12.43C47.66 12.59 47.66 12.67 47.82 12.67C48.09 12.67 48.76 12.64 49.11 12.64C49.46 12.64 50.05 12.67 50.32 12.67C50.47 12.67 50.48 12.57 50.48 12.43C50.48 12.28 50.48 12.21 50.32 12.21L49.71 12.21C49.64 12.21 49.64 10.04 49.64 9.70L49.64 7.32C49.64 7.24 49.64 7.20 49.50 7.20C49.43 7.20 48.69 7.24 47.92 7.27C47.75 7.27 47.71 7.27 47.66 7.41C47.61 7.52 47.59 7.60 47.59 7.64ZM48.34 4.86C48.34 5.28 48.65 5.47 48.96 5.47C49.36 5.47 49.85 5.15 49.85 4.65C49.85 4.21 49.53 4.05 49.22 4.05C48.87 4.05 48.34 4.33 48.34 4.86ZM58.02 3.58C58.02 3.65 58.03 3.65 58.09 3.65C58.14 3.65 58.73 3.60 58.81 3.60C58.88 3.60 58.94 3.57 58.97 3.82C59.08 5.07 59.12 10.37 59.12 11.06C59.12 11.44 59.12 12.21 59.05 12.21L58.34 12.21C58.18 12.21 58.17 12.29 58.17 12.43C58.17 12.59 58.18 12.67 58.35 12.67C58.77 12.67 59.35 12.64 59.70 12.64C60.10 12.64 60.59 12.67 60.86 12.67C61.03 12.67 61.03 12.60 61.03 12.43C61.03 12.28 61.03 12.21 60.86 12.21L60.26 12.21C60.20 12.21 60.19 12.05 60.19 11.70C60.19 8.89 60.12 7.62 60.10 3.32C60.10 3.16 60.10 3.07 59.96 3.07C59.88 3.07 58.79 3.15 58.23 3.19C58.11 3.21 58.09 3.19 58.06 3.32C58.03 3.42 58.02 3.57 58.02 3.58ZM68.61 3.58C68.61 3.65 68.63 3.65 68.68 3.65C68.74 3.65 69.33 3.60 69.41 3.60C69.48 3.60 69.54 3.57 69.57 3.82C69.68 5.07 69.72 10.37 69.72 11.06C69.72 11.44 69.72 12.21 69.65 12.21L68.94 12.21C68.78 12.21 68.77 12.29 68.77 12.43C68.77 12.59 68.78 12.67 68.95 12.67C69.37 12.67 69.94 12.64 70.29 12.64C70.70 12.64 71.19 12.67 71.46 12.67C71.62 12.67 71.62 12.60 71.62 12.43C71.62 12.28 71.62 12.21 71.46 12.21L70.85 12.21C70.80 12.21 70.78 12.05 70.78 11.70C70.78 8.89 70.71 7.62 70.70 3.32C70.70 3.16 70.70 3.07 70.56 3.07C70.48 3.07 69.38 3.15 68.82 3.19C68.71 3.21 68.68 3.19 68.66 3.32C68.63 3.42 68.61 3.57 68.61 3.58ZM79.27 7.64C79.27 7.70 79.34 7.70 79.39 7.70C79.45 7.70 80.02 7.67 80.07 7.67C80.16 7.67 80.22 7.66 80.23 7.85C80.28 8.88 80.29 9.87 80.29 10.85C80.29 11.14 80.29 12.21 80.25 12.21L79.55 12.21C79.35 12.21 79.34 12.29 79.34 12.43C79.34 12.59 79.34 12.67 79.51 12.67C79.77 12.67 80.44 12.64 80.79 12.64C81.14 12.64 81.73 12.67 82.00 12.67C82.15 12.67 82.17 12.57 82.17 12.43C82.17 12.28 82.17 12.21 82.00 12.21L81.40 12.21C81.33 12.21 81.33 10.04 81.33 9.70L81.33 7.32C81.33 7.24 81.33 7.20 81.19 7.20C81.12 7.20 80.37 7.24 79.60 7.27C79.44 7.27 79.39 7.27 79.34 7.41C79.30 7.52 79.27 7.60 79.27 7.64ZM80.02 4.86C80.02 5.28 80.33 5.47 80.64 5.47C81.05 5.47 81.54 5.15 81.54 4.65C81.54 4.21 81.21 4.05 80.91 4.05C80.56 4.05 80.02 4.33 80.02 4.86ZM89.75 7.73C89.75 7.77 89.77 7.80 89.82 7.80C89.88 7.80 90.57 7.74 90.61 7.74C90.69 7.74 90.75 7.70 90.76 7.90C90.79 8.33 90.79 8.81 90.79 9.28C90.79 9.73 90.76 12.21 90.68 12.21L90.05 12.21C89.88 12.21 89.87 12.29 89.87 12.43C89.87 12.59 89.87 12.67 90.05 12.67C90.47 12.67 90.97 12.64 91.32 12.64C91.73 12.64 92.23 12.67 92.50 12.67C92.68 12.67 92.68 12.56 92.68 12.43C92.68 12.29 92.68 12.21 92.48 12.21L91.95 12.21C91.83 12.21 91.81 12.21 91.81 11.98C91.81 10.84 91.83 9.67 91.83 8.53C91.83 8.41 91.84 8.36 92.05 8.25C92.33 8.11 92.74 7.85 93.28 7.85C94.33 7.85 94.58 8.62 94.58 9.63C94.58 11.03 94.56 12.21 94.50 12.21L93.90 12.21C93.74 12.21 93.67 12.26 93.67 12.45C93.67 12.61 93.67 12.67 93.88 12.67C94.30 12.67 94.75 12.64 95.10 12.64C95.51 12.64 95.89 12.67 96.15 12.67C96.35 12.67 96.36 12.56 96.36 12.43C96.36 12.25 96.31 12.21 96.12 12.21L95.70 12.21C95.59 12.21 95.59 12.21 95.59 12.08C95.59 11.87 95.66 10.47 95.66 9.70C95.66 8.33 95.41 7.18 93.76 7.18C92.89 7.18 92.37 7.63 91.95 7.90C91.85 7.95 91.80 8.05 91.80 7.90L91.80 7.42C91.80 7.28 91.83 7.21 91.62 7.22C91.21 7.25 90.26 7.31 90.06 7.32C89.87 7.34 89.88 7.35 89.84 7.46C89.81 7.53 89.75 7.67 89.75 7.73ZM103.84 15.02C103.84 16.18 105.31 16.70 106.47 16.70C108.29 16.70 109.59 15.79 109.59 14.34C109.59 12.47 106.71 12.67 104.93 12.56C104.90 12.56 104.76 12.32 104.76 12.18C104.76 12.12 104.78 12.10 104.79 12.10C105.73 11.83 106.57 11.62 107.21 11.37C108.22 10.99 108.85 10.40 108.85 9.20C108.85 8.62 108.68 8.26 108.68 8.20C108.68 8.16 109.31 8.05 109.45 8.04C109.52 8.04 109.54 7.97 109.54 7.91C109.54 7.76 109.47 7.48 109.37 7.48C108.95 7.50 108.40 7.74 108.35 7.74C108.28 7.74 107.67 7.03 106.61 7.03C105.35 7.03 104.10 7.90 104.10 9.16C104.10 10.49 104.87 11.16 105.91 11.45C105.98 11.47 106.04 11.48 106.04 11.49C106.04 11.51 104.64 11.87 104.58 11.89C104.37 11.93 104.30 12.12 104.30 12.38C104.30 12.53 104.31 12.78 104.43 13.06C104.52 13.27 104.79 13.36 105.03 13.36L105.53 13.36C105.83 13.36 105.77 13.36 105.56 13.43C104.86 13.62 103.84 14.11 103.84 15.02ZM104.55 14.92C104.55 14.04 105.66 13.59 106.32 13.59C107.35 13.59 108.71 13.92 108.71 14.67C108.71 15.86 107.51 16.25 106.46 16.25C105.62 16.25 104.55 15.81 104.55 14.92ZM105.08 9.10C105.08 8.19 105.77 7.46 106.54 7.46C107.37 7.46 107.90 8.09 107.90 9.18C107.90 10.43 107.09 11.23 106.57 11.23C106.25 11.23 105.08 10.46 105.08 9.10ZM126.73 7.45C126.73 7.59 126.73 7.67 126.91 7.67L127.19 7.67C127.29 7.67 127.29 7.69 127.36 7.85C127.93 9.25 129.54 12.99 129.54 13.20C129.54 13.34 129.16 14.29 128.93 14.88C128.77 15.26 128.07 15.43 127.69 15.57C127.57 15.61 127.39 15.69 127.29 15.83C127.15 16.03 127.01 16.30 127.01 16.45C127.01 16.59 127.08 16.77 127.30 16.77C127.41 16.77 127.83 16.58 128.18 16.41C128.53 16.24 128.56 16.17 128.77 15.90C129.37 15.16 129.43 14.92 129.68 14.21C129.95 13.44 130.20 12.67 130.24 12.57C130.35 12.29 131.88 8.40 132.10 7.78C132.15 7.67 132.19 7.67 132.27 7.67L132.48 7.67C132.65 7.67 132.65 7.59 132.65 7.45C132.65 7.28 132.62 7.21 132.47 7.21C132.34 7.21 131.96 7.24 131.66 7.24C131.38 7.24 130.83 7.21 130.72 7.21C130.54 7.21 130.52 7.31 130.52 7.45C130.52 7.59 130.52 7.67 130.70 7.67L131.19 7.67C131.39 7.67 131.45 7.69 131.45 7.76C131.45 7.78 131.45 7.81 131.43 7.87C131.29 8.40 130.65 10.26 130.31 11.24C130.21 11.51 130.14 11.69 130.12 11.69C130.07 11.69 130.00 11.49 129.89 11.24C129.46 10.18 128.65 7.99 128.65 7.77C128.65 7.70 128.77 7.67 128.97 7.67L129.23 7.67C129.40 7.67 129.44 7.59 129.44 7.45C129.44 7.29 129.42 7.21 129.22 7.21C129.01 7.21 128.52 7.24 127.99 7.24C127.58 7.24 127.13 7.21 126.91 7.21C126.74 7.21 126.73 7.32 126.73 7.45ZM140.06 10.04C140.06 11.58 141.22 12.85 142.74 12.85C144.51 12.85 145.54 11.58 145.54 9.84C145.54 8.29 144.52 7.01 142.97 7.01C141.22 7.01 140.06 8.37 140.06 10.04ZM141.13 10.23C141.13 8.69 141.53 7.46 142.80 7.46C143.93 7.46 144.45 8.74 144.45 9.74C144.45 10.92 144.21 12.40 142.74 12.40C141.69 12.40 141.13 11.27 141.13 10.23ZM153.08 7.60C153.08 7.66 153.12 7.67 153.19 7.67C153.24 7.67 153.83 7.66 153.87 7.66C153.97 7.66 154 8.05 154 8.69L154 10.89C154 11.83 154.21 12.80 155.57 12.80C156.60 12.80 157.79 12.15 157.82 12.15C157.86 12.15 157.84 12.87 157.92 12.87C157.98 12.87 159.11 12.70 159.59 12.63C159.77 12.60 159.77 12.59 159.77 12.38C159.77 12.29 159.77 12.19 159.68 12.19C159.64 12.19 159.10 12.28 159.07 12.28C158.89 12.28 158.84 12.19 158.84 11.49C158.84 10.63 158.86 7.28 158.86 7.28C158.86 7.20 158.87 7.15 158.72 7.15C158.65 7.15 157.81 7.20 157.09 7.22C156.97 7.22 156.93 7.25 156.91 7.35C156.90 7.39 156.88 7.56 156.88 7.60C156.88 7.64 156.94 7.64 157.00 7.64C157.04 7.64 157.58 7.62 157.70 7.62C157.78 7.62 157.81 9.87 157.81 10.18L157.81 11.83C157.81 11.93 157.05 12.01 156.58 12.01C155.75 12.01 155.06 11.86 155.06 11.12L155.06 7.31C155.06 7.22 155.06 7.18 154.98 7.18C154.91 7.18 153.69 7.22 153.38 7.24C153.22 7.25 153.17 7.24 153.13 7.36C153.10 7.43 153.08 7.55 153.08 7.60ZM167.36 7.71C167.36 7.76 167.38 7.76 167.45 7.76C167.50 7.76 168.21 7.73 168.29 7.73C168.38 7.73 168.41 9.20 168.41 10.33C168.41 11.24 168.39 12.21 168.29 12.21L167.68 12.21C167.51 12.21 167.51 12.29 167.51 12.43C167.51 12.59 167.52 12.67 167.69 12.67C168.11 12.67 168.59 12.64 168.94 12.64C169.34 12.64 170.20 12.67 170.46 12.67C170.65 12.67 170.65 12.56 170.65 12.43C170.65 12.29 170.63 12.21 170.46 12.21L169.54 12.21C169.44 12.21 169.41 11.47 169.41 10.68C169.41 9.46 169.53 7.87 170.17 7.87C170.41 7.87 170.69 8.32 171.00 8.32C171.26 8.32 171.57 7.85 171.57 7.69C171.57 7.49 171.18 7.04 170.73 7.04C170.28 7.04 169.71 7.49 169.39 8.26C169.32 8.40 169.33 8.46 169.33 8.23C169.33 7.98 169.34 7.64 169.34 7.42C169.34 7.29 169.34 7.29 169.18 7.29C169.08 7.29 168.18 7.32 167.66 7.34C167.47 7.34 167.44 7.34 167.41 7.45C167.40 7.52 167.36 7.66 167.36 7.71ZM188.48 3.65C188.48 3.74 188.48 3.78 188.61 3.78C188.68 3.78 189.35 3.70 189.46 3.70C189.60 3.70 189.67 7.92 189.67 10.00C189.67 12.21 189.62 12.50 189.62 12.59C189.62 12.67 189.62 12.81 189.76 12.81C189.98 12.81 190.16 12.56 190.50 12.56C190.85 12.56 191.21 12.82 191.84 12.82C193.42 12.82 194.88 11.77 194.88 9.97C194.88 8.39 193.76 7.15 192.15 7.15C191.45 7.15 190.75 7.55 190.71 7.55C190.68 7.55 190.68 7.38 190.68 7.14C190.68 5.07 190.72 3.58 190.72 3.21C190.72 3.14 190.71 3.09 190.61 3.09C190.53 3.09 189.24 3.26 188.57 3.32C188.50 3.32 188.48 3.63 188.48 3.65ZM190.65 11.70C190.65 11.24 190.68 9.41 190.68 7.98C190.68 7.88 191.20 7.64 191.59 7.64C192.78 7.64 193.79 8.69 193.79 9.98C193.79 11.21 193.07 12.36 191.79 12.36C191.38 12.36 190.65 12.35 190.65 11.70ZM202.41 7.60C202.41 7.66 202.45 7.67 202.52 7.67C202.58 7.67 203.17 7.66 203.21 7.66C203.31 7.66 203.34 8.05 203.34 8.69L203.34 10.89C203.34 11.83 203.55 12.80 204.90 12.80C205.94 12.80 207.13 12.15 207.16 12.15C207.20 12.15 207.17 12.87 207.26 12.87C207.31 12.87 208.45 12.70 208.92 12.63C209.10 12.60 209.10 12.59 209.10 12.38C209.10 12.29 209.10 12.19 209.02 12.19C208.98 12.19 208.43 12.28 208.40 12.28C208.22 12.28 208.18 12.19 208.18 11.49C208.18 10.63 208.19 7.28 208.19 7.28C208.19 7.20 208.21 7.15 208.05 7.15C207.98 7.15 207.14 7.20 206.43 7.22C206.30 7.22 206.26 7.25 206.25 7.35C206.23 7.39 206.22 7.56 206.22 7.60C206.22 7.64 206.28 7.64 206.33 7.64C206.37 7.64 206.92 7.62 207.03 7.62C207.12 7.62 207.14 9.87 207.14 10.18L207.14 11.83C207.14 11.93 206.39 12.01 205.91 12.01C205.09 12.01 204.40 11.86 204.40 11.12L204.40 7.31C204.40 7.22 204.40 7.18 204.32 7.18C204.25 7.18 203.03 7.22 202.72 7.24C202.55 7.25 202.51 7.24 202.47 7.36C202.44 7.43 202.41 7.55 202.41 7.60ZM216.85 11.90C216.85 12.39 217.80 12.81 218.65 12.81C219.70 12.81 220.67 12.17 220.67 11.12C220.67 10.25 219.70 9.83 218.90 9.45C218.30 9.16 217.78 8.95 217.78 8.37C217.78 7.67 218.32 7.43 218.76 7.43C219.65 7.43 219.46 8.34 219.81 8.34C220.00 8.34 220.44 8.23 220.44 8.06C220.44 7.67 220.02 7.06 218.95 7.06C217.94 7.06 216.89 7.71 216.89 8.68C216.89 9.62 217.78 10.00 218.54 10.33C219.20 10.61 219.76 10.91 219.76 11.54C219.76 12.14 219.34 12.40 218.88 12.40C218.26 12.40 217.90 12.08 217.60 11.72C217.46 11.54 217.41 11.31 217.31 11.31C217.21 11.31 216.85 11.62 216.85 11.90ZM228.40 7.64C228.40 7.70 228.47 7.70 228.52 7.70C228.58 7.70 229.15 7.67 229.19 7.67C229.29 7.67 229.35 7.66 229.36 7.85C229.40 8.88 229.42 9.87 229.42 10.85C229.42 11.14 229.42 12.21 229.38 12.21L228.68 12.21C228.48 12.21 228.47 12.29 228.47 12.43C228.47 12.59 228.47 12.67 228.63 12.67C228.90 12.67 229.57 12.64 229.92 12.64C230.27 12.64 230.86 12.67 231.13 12.67C231.28 12.67 231.29 12.57 231.29 12.43C231.29 12.28 231.29 12.21 231.13 12.21L230.52 12.21C230.45 12.21 230.45 10.04 230.45 9.70L230.45 7.32C230.45 7.24 230.45 7.20 230.31 7.20C230.24 7.20 229.50 7.24 228.73 7.27C228.56 7.27 228.52 7.27 228.47 7.41C228.42 7.52 228.40 7.60 228.40 7.64ZM229.15 4.86C229.15 5.28 229.46 5.47 229.77 5.47C230.17 5.47 230.66 5.15 230.66 4.65C230.66 4.21 230.34 4.05 230.03 4.05C229.68 4.05 229.15 4.33 229.15 4.86ZM238.88 7.73C238.88 7.77 238.90 7.80 238.95 7.80C239.01 7.80 239.69 7.74 239.74 7.74C239.82 7.74 239.88 7.70 239.89 7.90C239.92 8.33 239.92 8.81 239.92 9.28C239.92 9.73 239.89 12.21 239.81 12.21L239.18 12.21C239.01 12.21 238.99 12.29 238.99 12.43C238.99 12.59 238.99 12.67 239.18 12.67C239.60 12.67 240.10 12.64 240.45 12.64C240.86 12.64 241.36 12.67 241.63 12.67C241.81 12.67 241.81 12.56 241.81 12.43C241.81 12.29 241.81 12.21 241.61 12.21L241.08 12.21C240.95 12.21 240.94 12.21 240.94 11.98C240.94 10.84 240.95 9.67 240.95 8.53C240.95 8.41 240.97 8.36 241.18 8.25C241.46 8.11 241.86 7.85 242.41 7.85C243.46 7.85 243.71 8.62 243.71 9.63C243.71 11.03 243.68 12.21 243.63 12.21L243.03 12.21C242.87 12.21 242.80 12.26 242.80 12.45C242.80 12.61 242.80 12.67 243.01 12.67C243.43 12.67 243.88 12.64 244.23 12.64C244.64 12.64 245.01 12.67 245.28 12.67C245.48 12.67 245.49 12.56 245.49 12.43C245.49 12.25 245.43 12.21 245.25 12.21L244.83 12.21C244.72 12.21 244.72 12.21 244.72 12.08C244.72 11.87 244.79 10.47 244.79 9.70C244.79 8.33 244.54 7.18 242.89 7.18C242.02 7.18 241.50 7.63 241.08 7.90C240.98 7.95 240.93 8.05 240.93 7.90L240.93 7.42C240.93 7.28 240.95 7.21 240.74 7.22C240.34 7.25 239.39 7.31 239.19 7.32C238.99 7.34 239.01 7.35 238.97 7.46C238.94 7.53 238.88 7.67 238.88 7.73ZM253.19 10.01C253.19 11.68 254.16 12.85 255.92 12.85C257.38 12.85 258.37 11.56 258.37 11.48C258.37 11.45 258.13 11.24 258.09 11.24C258.01 11.24 257.42 12.15 256.24 12.15C255.23 12.15 254.24 11.33 254.24 9.88C254.24 9.72 254.25 9.49 254.28 9.42C254.49 9.42 257.25 9.49 257.40 9.49C257.54 9.49 258.20 9.46 258.20 9.28C258.20 8.09 257.49 7.01 256.07 7.01C254.37 7.01 253.19 8.33 253.19 10.01ZM254.31 9.03C254.37 8.34 255.01 7.41 255.91 7.41C256.34 7.41 257.15 7.70 257.15 8.99C257.15 9.04 256.98 9.03 256.63 9.04C255.93 9.07 254.51 9.10 254.44 9.10C254.32 9.10 254.31 9.09 254.31 9.03ZM266.18 11.90C266.18 12.39 267.13 12.81 267.99 12.81C269.04 12.81 270.00 12.17 270.00 11.12C270.00 10.25 269.04 9.83 268.24 9.45C267.64 9.16 267.12 8.95 267.12 8.37C267.12 7.67 267.65 7.43 268.10 7.43C268.98 7.43 268.80 8.34 269.15 8.34C269.33 8.34 269.78 8.23 269.78 8.06C269.78 7.67 269.36 7.06 268.28 7.06C267.27 7.06 266.22 7.71 266.22 8.68C266.22 9.62 267.12 10.00 267.88 10.33C268.53 10.61 269.09 10.91 269.09 11.54C269.09 12.14 268.67 12.40 268.21 12.40C267.60 12.40 267.23 12.08 266.94 11.72C266.80 11.54 266.74 11.31 266.64 11.31C266.55 11.31 266.18 11.62 266.18 11.90ZM277.90 11.90C277.90 12.39 278.85 12.81 279.71 12.81C280.76 12.81 281.72 12.17 281.72 11.12C281.72 10.25 280.76 9.83 279.96 9.45C279.36 9.16 278.84 8.95 278.84 8.37C278.84 7.67 279.37 7.43 279.82 7.43C280.70 7.43 280.52 8.34 280.87 8.34C281.05 8.34 281.50 8.23 281.50 8.06C281.50 7.67 281.08 7.06 280 7.06C278.99 7.06 277.94 7.71 277.94 8.68C277.94 9.62 278.84 10.00 279.59 10.33C280.25 10.61 280.81 10.91 280.81 11.54C280.81 12.14 280.39 12.40 279.93 12.40C279.31 12.40 278.95 12.08 278.66 11.72C278.52 11.54 278.46 11.31 278.36 11.31C278.26 11.31 277.90 11.62 277.90 11.90ZM299.25 7.73C299.25 7.77 299.26 7.80 299.32 7.80C299.38 7.80 300.06 7.74 300.10 7.74C300.19 7.74 300.24 7.70 300.26 7.90C300.29 8.33 300.29 8.81 300.29 9.28C300.29 9.73 300.26 12.21 300.17 12.21L299.54 12.21C299.38 12.21 299.36 12.29 299.36 12.43C299.36 12.59 299.36 12.67 299.54 12.67C299.96 12.67 300.47 12.64 300.82 12.64C301.22 12.64 301.73 12.67 301.99 12.67C302.18 12.67 302.18 12.56 302.18 12.43C302.18 12.29 302.18 12.21 301.98 12.21L301.45 12.21C301.32 12.21 301.31 12.21 301.31 11.98C301.31 10.84 301.32 9.67 301.32 8.53C301.32 8.41 301.34 8.36 301.55 8.25C301.83 8.11 302.23 7.85 302.78 7.85C303.83 7.85 304.08 8.62 304.08 9.63C304.08 11.03 304.05 12.21 304.00 12.21L303.39 12.21C303.24 12.21 303.17 12.26 303.17 12.45C303.17 12.61 303.17 12.67 303.38 12.67C303.80 12.67 304.25 12.64 304.60 12.64C305.00 12.64 305.38 12.67 305.65 12.67C305.84 12.67 305.86 12.56 305.86 12.43C305.86 12.25 305.80 12.21 305.62 12.21L305.20 12.21C305.09 12.21 305.09 12.21 305.09 12.08C305.09 11.87 305.16 10.47 305.16 9.70C305.16 8.33 304.91 7.18 303.25 7.18C302.39 7.18 301.87 7.63 301.45 7.90C301.35 7.95 301.29 8.05 301.29 7.90L301.29 7.42C301.29 7.28 301.32 7.21 301.11 7.22C300.71 7.25 299.75 7.31 299.56 7.32C299.36 7.34 299.38 7.35 299.33 7.46C299.31 7.53 299.25 7.67 299.25 7.73ZM313.56 10.01C313.56 11.68 314.52 12.85 316.29 12.85C317.74 12.85 318.74 11.56 318.74 11.48C318.74 11.45 318.50 11.24 318.46 11.24C318.37 11.24 317.79 12.15 316.61 12.15C315.60 12.15 314.61 11.33 314.61 9.88C314.61 9.72 314.62 9.49 314.65 9.42C314.86 9.42 317.62 9.49 317.77 9.49C317.91 9.49 318.57 9.46 318.57 9.28C318.57 8.09 317.86 7.01 316.44 7.01C314.73 7.01 313.56 8.33 313.56 10.01ZM314.68 9.03C314.73 8.34 315.38 7.41 316.27 7.41C316.71 7.41 317.52 7.70 317.52 8.99C317.52 9.04 317.35 9.03 317.00 9.04C316.30 9.07 314.87 9.10 314.80 9.10C314.69 9.10 314.68 9.09 314.68 9.03ZM326.49 10.01C326.49 11.68 327.46 12.85 329.22 12.85C330.68 12.85 331.67 11.56 331.67 11.48C331.67 11.45 331.44 11.24 331.39 11.24C331.31 11.24 330.72 12.15 329.55 12.15C328.54 12.15 327.54 11.33 327.54 9.88C327.54 9.72 327.56 9.49 327.59 9.42C327.80 9.42 330.55 9.49 330.71 9.49C330.85 9.49 331.51 9.46 331.51 9.28C331.51 8.09 330.79 7.01 329.38 7.01C327.67 7.01 326.49 8.33 326.49 10.01ZM327.61 9.03C327.67 8.34 328.31 7.41 329.21 7.41C329.64 7.41 330.46 7.70 330.46 8.99C330.46 9.04 330.29 9.03 329.94 9.04C329.24 9.07 327.81 9.10 327.74 9.10C327.63 9.10 327.61 9.09 327.61 9.03ZM339.42 10.07C339.42 12.11 340.66 12.82 341.92 12.82C342.47 12.82 343.14 12.57 343.62 12.28C343.73 12.21 343.77 12.22 343.77 12.29C343.77 12.35 343.76 12.77 343.76 12.80C343.76 12.92 343.77 12.96 343.87 12.96C343.94 12.96 345.59 12.74 345.59 12.74C345.72 12.73 345.72 12.57 345.72 12.38C345.72 12.28 345.66 12.28 345.58 12.29C345.44 12.31 345.11 12.36 345.07 12.36C344.83 12.36 344.78 12.24 344.76 11.63C344.75 11.13 344.74 10.47 344.74 10.02C344.74 5.68 344.82 3.74 344.82 3.26C344.82 3.07 344.81 3.04 344.75 3.04C344.53 3.04 343.69 3.19 342.76 3.29C342.65 3.30 342.66 3.33 342.64 3.51C342.61 3.70 342.62 3.77 342.69 3.77C342.79 3.77 343.55 3.64 343.63 3.64C343.71 3.64 343.78 6.51 343.78 7.41C343.78 7.52 343.77 7.60 343.74 7.60C343.70 7.60 343.10 7.25 342.30 7.25C340.66 7.25 339.42 8.46 339.42 10.07ZM340.52 9.97C340.52 8.74 341.26 7.62 342.47 7.62C343.18 7.62 343.78 8.16 343.78 8.30L343.78 11.80C343.78 12.00 342.99 12.22 342.61 12.22C341.12 12.22 340.52 11.26 340.52 9.97ZM353.47 11.90C353.47 12.39 354.42 12.81 355.28 12.81C356.33 12.81 357.29 12.17 357.29 11.12C357.29 10.25 356.33 9.83 355.53 9.45C354.93 9.16 354.41 8.95 354.41 8.37C354.41 7.67 354.94 7.43 355.39 7.43C356.27 7.43 356.09 8.34 356.44 8.34C356.62 8.34 357.07 8.23 357.07 8.06C357.07 7.67 356.65 7.06 355.57 7.06C354.56 7.06 353.51 7.71 353.51 8.68C353.51 9.62 354.41 10.00 355.17 10.33C355.82 10.61 356.38 10.91 356.38 11.54C356.38 12.14 355.96 12.40 355.50 12.40C354.89 12.40 354.52 12.08 354.23 11.72C354.09 11.54 354.03 11.31 353.93 11.31C353.84 11.31 353.47 11.62 353.47 11.90Z"></path></g></svg>